<svg xmlns="http://www.w3.org/2000/svg" xmlns:xlink="http://www.w3.org/1999/xlink" width="316.157" height="329.87" viewBox="0 0 83.65 87.278" xmlns:v="https://vecta.io/nano"><style><![CDATA[.B{stroke-linejoin:round}.C{color-interpolation-filters:sRGB}.D{stroke-linecap:round}.E{stroke-width:.346}.F{stroke-width:5.458}.G{stroke-dasharray:none}.H{stroke-width:.158}]]></style><defs><linearGradient ><stop offset="0" stop-color="#fff" stop-opacity="0"/><stop offset="1" stop-color="#fff" stop-opacity=".698"/></linearGradient><linearGradient id="B" x1="55.975" y1="99.548" x2="73.617" y2="66.117" xlink:href="#b"><stop offset="0" stop-color="#275ee4"/><stop offset=".415" stop-color="#2794e4"/><stop offset="1" stop-color="#38cce6"/></linearGradient><clipPath id="C"><path d="M47.524 146.677h38.01v45.679h-38.01zm13.984 6.469v.001a12.968 12.968 0 0 0-2.151 21.502l-.008.004 11.64 10.141.003-.002a6.478 6.478 0 0 0 11.288-5.957l.003-.002-1.803-15.332-.008.004a12.968 12.968 0 0 0-18.965-10.36z" opacity="1" fill="#27e440" fill-opacity=".293" class="B D E"/></clipPath><linearGradient id="D" x1="55.975" y1="186.609" x2="73.617" y2="153.178" xlink:href="#b"><stop offset="0" stop-color="#275ee4"/><stop offset=".415" stop-color="#277ae4"/><stop offset="1" stop-color="#276ce4"/></linearGradient><linearGradient id="E" x1="17.375" y1="127.255" x2="45.733" y2="127.255" xlink:href="#b"><stop offset="0" stop-color="#fff"/><stop offset=".252" stop-color="#fff" stop-opacity="0"/><stop offset="1" stop-color="#fff" stop-opacity="0"/></linearGradient><filter id="F" x="-.14" y="-.11" width="1.281" height="1.22" class="C"><feGaussianBlur stdDeviation="1.638"/></filter><clipPath id="G"><path d="M61.508 66.116a12.968 12.968 0 0 1 18.965 10.36l.008-.004 1.803 15.332-.003.002a6.478 6.478 0 0 1-11.288 5.957l-.003.002-11.64-10.141.008-.004a12.968 12.968 0 0 1 2.151-21.502z" opacity="1" fill="#a1aab2" fill-opacity=".278" class="B D E"/></clipPath><filter id="H" x="-.156" y="-.156" width="1.312" height="1.312" class="C"><feGaussianBlur stdDeviation="1.085"/></filter><radialGradient id="I" cx="67.608" cy="162.382" fx="67.608" fy="162.382" r="8.341" gradientTransform="matrix(-1.2783175,0,0,-1.0194807,118.73173,287.88251)" xlink:href="#b"><stop offset="0" stop-color="#fff"/><stop offset=".675" stop-color="#f3f3f3"/><stop offset="1" stop-color="#e4e4e4"/></radialGradient><filter id="J" x="-.14" y="-.11" width="1.28" height="1.22" class="C"><feGaussianBlur stdDeviation="1.634"/></filter><filter id="K" x="-.107" y="-.084" width="1.215" height="1.169" class="C"><feGaussianBlur stdDeviation="1.295"/></filter><clipPath id="L"><path d="M98.83 169.667a12.456 12.456 0 0 1 18.215 9.95l.008-.004 1.731 14.726-.003.002a6.222 6.222 0 0 1-10.842 5.721l-.003.002-11.18-9.741.008-.004a12.456 12.456 0 0 1 2.066-20.652z" fill="#f0f" fill-opacity=".98" stroke-width=".332" class="B D"/></clipPath><linearGradient id="M" x1="110.87" y1="193.334" x2="163.059" y2="141.68" xlink:href="#b"><stop offset="0" stop-color="#4a5d9b"/><stop offset="1" stop-color="#2d315b"/></linearGradient><filter id="N" x="-.024" y="-.022" width="1.048" height="1.044" class="C"><feGaussianBlur stdDeviation="1.832"/></filter><clipPath id="O"><path d="M132.348 251.816a7.916 7.916 0 0 0 1.415 1.122h-.001l17.98 13.442a4.546 4.546 0 0 0 .083.062l.048.035.002-.003a4.546 4.546 0 0 0 6.33-6.33l.002-.002-.035-.048a4.546 4.546 0 0 0-.06-.08l-13.444-17.982h-.001a7.916 7.916 0 0 0-12.316-1.415 7.916 7.916 0 0 0-.001 11.195z" fill="red" fill-opacity="1" stroke="none" stroke-opacity="1" class="B D F G"/></clipPath><linearGradient id="P" x1="128.042" y1="165.288" x2="157.925" y2="185.016" xlink:href="#b"><stop offset="0" stop-color="#fff" stop-opacity=".436"/><stop offset=".459" stop-color="#fff" stop-opacity=".164"/><stop offset="1" stop-color="#cacaca" stop-opacity=".188"/></linearGradient><filter id="Q" x="-.105" y="-.105" width="1.21" height="1.21" class="C"><feGaussianBlur stdDeviation="1.269"/></filter><linearGradient id="R" x1="127.71" y1="167.844" x2="160.918" y2="179.709" xlink:href="#b"><stop offset="0" stop-color="#fff"/><stop offset=".355" stop-color="#fff" stop-opacity=".14"/><stop offset=".711" stop-color="#fff" stop-opacity=".14"/><stop offset="1" stop-color="#d3d3d3" stop-opacity=".654"/></linearGradient><filter  x="-inf" y="-inf" width="inf" height="inf" class="C"><feGaussianBlur stdDeviation="1.004"/></filter><clipPath ><path d="M132.348 172.441a7.916 7.916 0 0 0 1.415 1.122h-.001l17.98 13.442a4.546 4.546 0 0 0 .083.062l.048.035.002-.002a4.546 4.546 0 0 0 6.33-6.33l.002-.002-.035-.048a4.546 4.546 0 0 0-.06-.08l-13.444-17.982h-.001a7.916 7.916 0 0 0-12.316-1.415 7.916 7.916 0 0 0 0 11.195z" fill="#c11b4a" fill-opacity="1" stroke="none" stroke-opacity="1" class="B D F G"/></clipPath><filter  x="-inf" y="-inf" width="inf" height="inf" class="C"><feGaussianBlur stdDeviation=".945"/></filter><filter id="V" x="-.213" y="-.213" width="1.426" height="1.426" class="C"><feGaussianBlur stdDeviation=".562"/></filter><radialGradient id="W" cx="138.426" cy="165.357" fx="138.426" fy="165.357" r="3.164" gradientTransform="matrix(-1.2915191,1.2915191,-1.13625,-1.13625,505.09401,174.46385)" xlink:href="#b"><stop offset="0" stop-color="#fff"/><stop offset=".271" stop-color="#fff"/><stop offset="1" stop-color="#bdbdbd"/></radialGradient><linearGradient id="X" x1="160.693" y1="142.513" x2="178.538" y2="124.669" xlink:href="#b"><stop offset="0" stop-color="#dfdfdf"/><stop offset="1" stop-color="#fff"/></linearGradient><linearGradient id="Y" x1="53.289" y1="171.247" x2="83.652" y2="160.011" xlink:href="#b"><stop offset="0" stop-color="#9d7bd4"/><stop offset="1" stop-color="#4551dd"/></linearGradient><path id="Z" d="M24.466 114.733a12.968 12.968 0 0 1 18.965 10.36l.008-.004 1.803 15.332-.003.002a6.478 6.478 0 0 1-11.288 5.957l-.003.002-11.64-10.141.008-.004a12.968 12.968 0 0 1 2.151-21.502z"/><path id="a" d="M132.348 172.441a7.916 7.916 0 0 0 1.415 1.122h-.001l17.98 13.442a4.546 4.546 0 0 0 .083.062l.048.035.002-.002a4.546 4.546 0 0 0 6.33-6.33l.002-.002-.035-.048a4.546 4.546 0 0 0-.06-.08l-13.444-17.982h-.001a7.916 7.916 0 0 0-12.316-1.415 7.916 7.916 0 0 0 0 11.195z"/><linearGradient id="b" gradientUnits="userSpaceOnUse"/></defs><g transform="translate(-95.519 -121.675)"><path d="M49.39 152.604h41.526v41.526H49.39z" fill="#666" stroke="#fff" paint-order="markers fill stroke" class="B H"/><path id="c" d="M73.617 66.115a12.968 12.968 0 0 0-18.965 10.36l-.008-.004-1.803 15.332.003.002a6.478 6.478 0 0 0 11.288 5.957l.003.002 11.64-10.141-.008-.004a12.968 12.968 0 0 0-2.151-21.502z" fill="url(#B)"/><path d="M73.617 153.176a12.97 12.97 0 0 0-17.522 5.417 12.97 12.97 0 0 0-1.443 4.942l-.008-.004-1.803 15.332.003.002a6.48 6.48 0 0 0 11.288 5.957l.003.002 11.64-10.141-.008-.004a12.97 12.97 0 0 0 4.186-13.863 12.97 12.97 0 0 0-6.337-7.639z" clip-path="url(#C)" transform="translate(-37.042 -42.333)" fill="url(#D)"/><use xlink:href="#Z" fill-opacity=".315" filter="url(#J)"/><use xlink:href="#Z" y="-3.92" fill="#fff" fill-opacity=".98"/><use xlink:href="#c" clip-path="url(#G)" filter="url(#F)" x="-37.041" y="44.697"/><path d="M104.709 166.943a13.39 13.39 0 0 0-6.389 1.547l.001.001a13.39 13.39 0 0 0-5.593 18.091 13.39 13.39 0 0 0 3.372 4.11l-.009.004 12.018 10.471.003-.002a6.69 6.69 0 0 0 11.655-6.15l.003-.002-1.861-15.831-.008.004a13.39 13.39 0 0 0-13.192-12.243zm-.288 2.165c4.068-.05 8.033 2.124 10.071 5.985.697 1.327 1.122 2.779 1.249 4.275.006.01.013.02.019.03l.001-.001c.006.014.013.027.016.043l-.011-.006.001.008-.011-.006 2.248 17.087c.387 1.256-.536 3.543-2.479 4.57s-4.353.497-5.172-.532l-12.838-11.499-.002.012-.005-.004-.001.006-.039-.062a11.22 11.22 0 0 1-2.824-3.443c-2.887-5.471-.783-12.273 4.689-15.161 1.376-.727 2.827-1.138 4.273-1.262a11.23 11.23 0 0 1 .815-.04zm11.354 10.332l.02.011v.001l.006.009-.025-.013z" transform="matrix(1.041149 0 0 1.041149 -78.430282 -65.83586)" clip-path="url(#L)" opacity=".572" fill="#fff" filter="url(#K)"/><path d="m 24.466298,110.91514 a 12.968255,12.968255 0 0 1 17.521647,5.41723 12.968255,12.968255 0 0 1 1.443081,4.94249 l 0.0079,-0.004 1.80256,15.33243 -0.0032,0.002 a 6.4780643,6.4780643 0 0 1 -3.130378,7.74266 6.4780643,6.4780643 0 0 1 -8.158064,-1.78597 l -0.0032,0.002 -11.639924,-10.14141 0.0081,-0.004 a 12.968255,12.968255 0 0 1 -3.265885,-3.98063 12.968255,12.968255 0 0 1 5.417221,-17.52164 z" fill="none" stroke="url(#E)" stroke-width=".1" class="B"/><circle cx="29.967" cy="123.04" r="8.341" fill-opacity=".247" filter="url(#H)"/><circle cx="30.496" cy="122.511" r="8.853" fill="url(#I)"/><g fill="#914b44"><circle cx="137.945" cy="113.925" r="7.252"/><circle cx="116.511" cy="113.925" r="4.165"/></g><path d="M115.798 118.029l20.503 2.96v-14.127l-20.503 2.96z" fill="#82433d"/><path id="d" d="M78.122 159.59a7.252 7.252 0 0 0-1.643.19v-.001l-20.356 2.939a4.165 4.165 0 0 0-.094.013l-.054.008v.003a4.165 4.165 0 0 0 0 8.201v.003l.054.008a4.165 4.165 0 0 0 .091.013l20.358 2.939v-.001a7.252 7.252 0 0 0 8.895-7.062 7.252 7.252 0 0 0-7.252-7.252z" fill="url(#Y)"/><g id="e"><circle cx="137.945" cy="166.842" r="33.227" fill="url(#M)"/><circle cx="169.616" cy="133.591" r="8.922" transform="translate(-10.578 5.805)" fill="url(#X)" stroke="#d5d5d5" stroke-width=".1" class="B"/><text xml:space="preserve" x="159.038" y="142.397" font-size="10.797" font-family="Source Code Pro" text-anchor="middle" fill="#000" fill-opacity=".984"><tspan x="159.038" y="142.397" font-weight="bold" font-family="Source Sans Pro">{}</tspan></text><ellipse cx="137.945" cy="166.842" rx="25.215" ry="24.254" fill="none" stroke="#fff" stroke-width="1.203" paint-order="markers fill stroke" class="B"/></g><use xlink:href="#d" id="f" transform="rotate(34.538 108.033 263.06)" fill="none"/><use xlink:href="#a" fill-opacity=".426" filter="url(#Q)"/><g clip-path="url(#O)" transform="translate(0 -79.375)" filter="url(#N)"><use xlink:href="#e" y="79.375"/><use xlink:href="#f" y="79.375"/></g><use xlink:href="#a" fill="url(#P)" opacity=".423"/><path d="m 132.34769,172.4406 a 7.9156845,7.9156845 0 0 0 1.41473,1.12197 l -7.8e-4,7.7e-4 17.97983,13.4425 a 4.5458938,4.5458938 0 0 0 0.0825,0.0618 l 0.0476,0.0353 0.002,-0.002 a 4.5458938,4.5458938 0 0 0 5.82922,-0.50056 4.5458938,4.5458938 0 0 0 0.50055,-5.82921 l 0.002,-0.002 -0.0353,-0.0476 a 4.5458938,4.5458938 0 0 0 -0.0601,-0.0801 l -13.44449,-17.98182 -7.7e-4,7.7e-4 a 7.9156845,7.9156845 0 0 0 -1.12197,-1.41472 7.9156845,7.9156845 0 0 0 -11.19416,0 7.9156845,7.9156845 0 0 0 -4e-4,11.19455 z" fill="none" stroke="url(#R)" paint-order="markers fill stroke" class="B H"/><g transform="matrix(1.47482 0 0 1.47482 -65.49904 -79.220163)"><path d="M141.109 166.842c0 1.747-1.417 3.164-3.164 3.164s-3.164-1.417-3.164-3.164c0-.839.333-1.644.927-2.237s1.398-.927 2.237-.927 1.644.333 2.237.927.927 1.398.927 2.237z" fill-opacity=".454" filter="url(#V)"/><circle cx="137.945" cy="166.842" r="3.164" fill="url(#W)" paint-order="markers fill stroke"/></g></g></svg>